<?xml version="1.0" encoding="UTF-8"?>

<svg version="1.2" baseProfile="tiny" width="210mm" height="297mm" viewBox="0 0 21000 29700" preserveAspectRatio="xMidYMid" fill-rule="evenodd" stroke-width="28.222" stroke-linejoin="round" xmlns="http://www.w3.org/2000/svg" xmlns:xlink="http://www.w3.org/1999/xlink" xml:space="preserve">
 <g visibility="visible" id="MasterSlide_1_Обычный">
  <desc>Master slide
  </desc>
  <rect fill="none" stroke="none" x="0" y="0" width="21000" height="29700"/>
 </g>
 <g visibility="visible" id="Slide_1_page1">
  <g id="DrawingGroup_1">
   <g>
    <path fill="rgb(0,0,0)" stroke="none" d="M 4089,3969 C 4222,3847 4323,3741 4393,3652 4462,3563 4514,3479 4548,3400 L 4611,3400 C 4654,3491 4710,3579 4778,3665 4847,3750 4947,3852 5080,3970 L 5080,4077 C 4895,3990 4753,3900 4654,3805 L 4654,5836 4515,5836 4515,3805 C 4426,3875 4361,3924 4317,3951 4273,3979 4197,4020 4089,4074 L 4089,3969 Z"/>
    <rect fill="none" stroke="none" x="4088" y="3399" width="993" height="2439"/>
   </g>
   <g>
    <path fill="rgb(0,0,0)" stroke="none" d="M 4175,5014 C 4147,4901 4124,4831 4106,4804 L 4063,4851 C 3966,4975 3917,5111 3917,5261 3917,5437 3980,5588 4106,5713 4231,5838 4382,5901 4559,5901 4736,5901 4888,5838 5013,5713 5139,5588 5201,5437 5201,5259 5201,5089 5139,4937 5013,4804 L 5083,4734 C 5228,4888 5300,5063 5300,5260 5300,5464 5228,5639 5084,5783 4939,5928 4764,6000 4559,6000 4355,6000 4181,5928 4036,5783 3891,5639 3818,5464 3818,5259 3818,5063 3891,4888 4036,4734 L 3826,4664 4303,4537 4175,5014 Z"/>
    <rect fill="none" stroke="none" x="3818" y="4536" width="1484" height="1465"/>
   </g>
   <g>
    <path fill="rgb(0,0,0)" stroke="none" d="M 4508,6819 C 4508,6579 4508,6340 4508,6100 4555,6100 4602,6100 4649,6100 4649,6340 4649,6579 4649,6819 4602,6819 4555,6819 4508,6819 Z"/>
    <rect fill="none" stroke="none" x="4508" y="6100" width="142" height="720"/>
   </g>
  </g>
 </g>
</svg>