<?xml version="1.0" encoding="UTF-8"?>

<svg version="1.2" baseProfile="tiny" width="210mm" height="297mm" viewBox="0 0 21000 29700" preserveAspectRatio="xMidYMid" fill-rule="evenodd" stroke-width="28.222" stroke-linejoin="round" xmlns="http://www.w3.org/2000/svg" xmlns:xlink="http://www.w3.org/1999/xlink" xml:space="preserve">
 <g visibility="visible" id="MasterSlide_1_Обычный">
  <desc>Master slide
  </desc>
  <rect fill="none" stroke="none" x="0" y="0" width="21000" height="29700"/>
 </g>
 <g visibility="visible" id="Slide_1_page1">
  <g id="DrawingGroup_1">
   <g>
    <path fill="rgb(0,0,0)" stroke="none" d="M 8805,3406 L 8869,3474 8929,3534 8984,3584 9035,3626 9083,3662 9129,3692 9152,3706 9174,3718 9196,3729 9218,3739 9218,3784 9169,3810 9121,3839 9073,3871 9026,3906 8977,3948 8924,3998 8866,4057 8804,4125 8727,4125 8775,4030 8799,3987 8823,3947 8848,3910 8873,3876 8898,3844 8924,3816 7329,3816 7329,3715 8924,3715 8859,3630 8836,3598 8818,3571 8801,3543 8781,3506 8729,3406 8805,3406 Z"/>
    <rect fill="none" stroke="none" x="7329" y="3406" width="1890" height="720"/>
   </g>
   <g>
    <path fill="rgb(0,0,0)" stroke="none" d="M 7916,3483 L 7972,3469 8016,3456 8033,3449 8048,3444 8059,3438 8064,3435 8068,3433 8034,3402 8000,3377 7965,3355 7929,3337 7892,3322 7855,3311 7816,3303 7777,3298 7737,3296 7689,3298 7644,3305 7622,3309 7600,3315 7579,3322 7559,3330 7538,3339 7518,3349 7499,3361 7480,3373 7443,3401 7408,3433 7376,3468 7349,3504 7336,3523 7325,3543 7315,3563 7306,3583 7298,3604 7291,3625 7285,3647 7281,3669 7274,3714 7272,3762 7274,3809 7281,3855 7285,3877 7291,3899 7298,3920 7306,3941 7315,3961 7325,3981 7336,4001 7349,4020 7376,4056 7408,4091 7443,4123 7480,4151 7499,4163 7519,4175 7539,4185 7559,4194 7580,4202 7601,4209 7623,4215 7645,4219 7691,4226 7738,4228 7784,4226 7828,4219 7871,4209 7913,4194 7954,4175 7993,4151 8031,4123 8068,4091 8119,4142 8076,4179 8032,4211 7987,4238 7940,4261 7892,4278 7842,4290 7790,4298 7737,4300 7683,4298 7630,4290 7605,4285 7580,4278 7555,4270 7531,4261 7508,4250 7485,4239 7462,4226 7440,4211 7398,4179 7357,4143 7321,4102 7289,4060 7274,4038 7261,4015 7250,3992 7239,3969 7230,3945 7222,3920 7215,3895 7210,3869 7202,3817 7200,3762 7202,3707 7210,3655 7215,3629 7222,3604 7230,3580 7239,3556 7250,3532 7261,3509 7274,3487 7289,3465 7321,3422 7357,3382 7398,3345 7440,3313 7462,3299 7485,3286 7508,3274 7531,3263 7555,3254 7580,3246 7605,3239 7631,3234 7683,3226 7738,3224 7791,3226 7842,3234 7891,3246 7940,3263 7987,3286 8032,3313 8076,3345 8119,3382 8170,3230 8262,3576 7916,3483 Z"/>
    <rect fill="none" stroke="none" x="7200" y="3224" width="1064" height="1078"/>
   </g>
   <g>
    <path fill="rgb(0,0,0)" stroke="none" d="M 6257,3818 L 6257,3709 7128,3709 7128,3818 6257,3818 Z"/>
    <rect fill="none" stroke="none" x="6257" y="3709" width="872" height="111"/>
   </g>
  </g>
 </g>
</svg>